<svg xmlns="http://www.w3.org/2000/svg" width="256" height="256" viewBox="0 0 100 100"><rect width="100" height="100" rx="0" fill="#fff"></rect><path d="M37.94 81.50L28.94 81.50L28.94 18.50L49.73 18.50Q56.08 18.50 60.89 20.53Q65.70 22.55 68.38 27.05Q71.06 31.55 71.06 38.93L71.06 38.93Q71.06 46.18 68.38 50.70Q65.70 55.22 60.89 57.34Q56.08 59.45 49.73 59.45L49.73 59.45L37.94 59.45L37.94 81.50ZM37.94 26.15L37.94 51.80L48.47 51.80Q55.36 51.80 58.80 48.67Q62.24 45.55 62.24 39.02L62.24 39.02Q62.24 32.45 58.98 29.30Q55.72 26.15 48.47 26.15L48.47 26.15L37.94 26.15Z" fill="#25222b"></path></svg>